<?xml version="1.0" encoding="UTF-8" standalone="no"?>
<!DOCTYPE svg PUBLIC "-//W3C//DTD SVG 1.1//EN"
 "http://www.w3.org/Graphics/SVG/1.1/DTD/svg11.dtd">
<!-- Generated by graphviz version 2.40.1 (20161225.0304)
 -->
<!-- Title: dependencies Pages: 1 -->
<svg width="1093pt" height="284pt"
 viewBox="0.00 0.00 1093.00 284.00" xmlns="http://www.w3.org/2000/svg" xmlns:xlink="http://www.w3.org/1999/xlink">
<g id="graph0" class="graph" transform="scale(1 1) rotate(0) translate(4 280)">
<title>dependencies</title>
<polygon fill="#ffffff" stroke="transparent" points="-4,4 -4,-280 1089,-280 1089,4 -4,4"/>
<text text-anchor="start" x="521.5091" y="-42.4" font-family="sans-serif" font-weight="bold" font-size="14.00" fill="#000000">Legend</text>
<polygon fill="#ffffb3" stroke="transparent" points="308.5,-10 308.5,-30 328.5,-30 328.5,-10 308.5,-10"/>
<text text-anchor="start" x="332.129" y="-15.4" font-family="sans-serif" font-size="14.00" fill="#000000"> &#160;Declarations</text>
<polygon fill="#8dd3c7" stroke="transparent" points="421.5,-10 421.5,-30 441.5,-30 441.5,-10 421.5,-10"/>
<text text-anchor="start" x="445.2251" y="-15.4" font-family="sans-serif" font-size="14.00" fill="#000000"> &#160;Module</text>
<polygon fill="#80b1d3" stroke="transparent" points="507.5,-10 507.5,-30 527.5,-30 527.5,-10 507.5,-10"/>
<text text-anchor="start" x="531.2812" y="-15.4" font-family="sans-serif" font-size="14.00" fill="#000000"> &#160;Bootstrap</text>
<polygon fill="#fdb462" stroke="transparent" points="604.5,-10 604.5,-30 624.5,-30 624.5,-10 604.5,-10"/>
<text text-anchor="start" x="628.1732" y="-15.4" font-family="sans-serif" font-size="14.00" fill="#000000"> &#160;Providers</text>
<polygon fill="#fb8072" stroke="transparent" points="700.5,-10 700.5,-30 720.5,-30 720.5,-10 700.5,-10"/>
<text text-anchor="start" x="724.2258" y="-15.4" font-family="sans-serif" font-size="14.00" fill="#000000"> &#160;Exports</text>
<g id="clust1" class="cluster">
<title>cluster_AppModule</title>
<polygon fill="none" stroke="#000000" stroke-dasharray="1,5" points="8,-70 8,-268 1077,-268 1077,-70 8,-70"/>
</g>
<g id="clust2" class="cluster">
<title>cluster_AppModule_declarations</title>
<polygon fill="none" stroke="#000000" points="168,-78 168,-130 1069,-130 1069,-78 168,-78"/>
</g>
<g id="clust9" class="cluster">
<title>cluster_AppModule_imports</title>
<polygon fill="none" stroke="#000000" points="16,-78 16,-130 160,-130 160,-78 16,-78"/>
</g>
<g id="clust11" class="cluster">
<title>cluster_AppModule_bootstrap</title>
<polygon fill="none" stroke="#000000" points="480,-208 480,-260 604,-260 604,-208 480,-208"/>
</g>
<!-- AppComponent -->
<g id="node1" class="node">
<title>AppComponent</title>
<polygon fill="#ffffb3" stroke="#000000" points="1060.9399,-122 955.0601,-122 955.0601,-86 1060.9399,-86 1060.9399,-122"/>
<text text-anchor="middle" x="1008" y="-99.8" font-family="Times,serif" font-size="14.00" fill="#000000">AppComponent</text>
</g>
<!-- AppModule -->
<g id="node7" class="node">
<title>AppModule</title>
<polygon fill="#8dd3c7" stroke="#000000" points="583.6571,-187 580.6571,-191 559.6571,-191 556.6571,-187 500.3429,-187 500.3429,-151 583.6571,-151 583.6571,-187"/>
<text text-anchor="middle" x="542" y="-164.8" font-family="Times,serif" font-size="14.00" fill="#000000">AppModule</text>
</g>
<!-- AppComponent&#45;&gt;AppModule -->
<g id="edge1" class="edge">
<title>AppComponent&#45;&gt;AppModule</title>
<path fill="none" stroke="#000000" d="M1008,-122.2921C1008,-144.2057 1008,-178 1008,-178 1008,-178 593.7645,-178 593.7645,-178"/>
<polygon fill="#000000" stroke="#000000" points="593.7645,-174.5001 583.7645,-178 593.7645,-181.5001 593.7645,-174.5001"/>
</g>
<!-- DashboardComponent -->
<g id="node2" class="node">
<title>DashboardComponent</title>
<polygon fill="#ffffb3" stroke="#000000" points="936.9734,-122 795.0266,-122 795.0266,-86 936.9734,-86 936.9734,-122"/>
<text text-anchor="middle" x="866" y="-99.8" font-family="Times,serif" font-size="14.00" fill="#000000">DashboardComponent</text>
</g>
<!-- DashboardComponent&#45;&gt;AppModule -->
<g id="edge2" class="edge">
<title>DashboardComponent&#45;&gt;AppModule</title>
<path fill="none" stroke="#000000" d="M866,-122.1061C866,-141.3391 866,-169 866,-169 866,-169 593.694,-169 593.694,-169"/>
<polygon fill="#000000" stroke="#000000" points="593.6941,-165.5001 583.694,-169 593.694,-172.5001 593.6941,-165.5001"/>
</g>
<!-- HeroDetailComponent -->
<g id="node3" class="node">
<title>HeroDetailComponent</title>
<polygon fill="#ffffb3" stroke="#000000" points="776.5226,-122 633.4774,-122 633.4774,-86 776.5226,-86 776.5226,-122"/>
<text text-anchor="middle" x="705" y="-99.8" font-family="Times,serif" font-size="14.00" fill="#000000">HeroDetailComponent</text>
</g>
<!-- HeroDetailComponent&#45;&gt;AppModule -->
<g id="edge3" class="edge">
<title>HeroDetailComponent&#45;&gt;AppModule</title>
<path fill="none" stroke="#000000" d="M705,-122.027C705,-138.3976 705,-160 705,-160 705,-160 593.9766,-160 593.9766,-160"/>
<polygon fill="#000000" stroke="#000000" points="593.9766,-156.5001 583.9766,-160 593.9765,-163.5001 593.9766,-156.5001"/>
</g>
<!-- HeroSearchComponent -->
<g id="node4" class="node">
<title>HeroSearchComponent</title>
<polygon fill="#ffffb3" stroke="#000000" points="615.9017,-122 468.0983,-122 468.0983,-86 615.9017,-86 615.9017,-122"/>
<text text-anchor="middle" x="542" y="-99.8" font-family="Times,serif" font-size="14.00" fill="#000000">HeroSearchComponent</text>
</g>
<!-- HeroSearchComponent&#45;&gt;AppModule -->
<g id="edge4" class="edge">
<title>HeroSearchComponent&#45;&gt;AppModule</title>
<path fill="none" stroke="#000000" d="M542,-122.1061C542,-122.1061 542,-140.991 542,-140.991"/>
<polygon fill="#000000" stroke="#000000" points="538.5001,-140.9909 542,-150.991 545.5001,-140.991 538.5001,-140.9909"/>
</g>
<!-- HeroesComponent -->
<g id="node5" class="node">
<title>HeroesComponent</title>
<polygon fill="#ffffb3" stroke="#000000" points="450.4734,-122 329.5266,-122 329.5266,-86 450.4734,-86 450.4734,-122"/>
<text text-anchor="middle" x="390" y="-99.8" font-family="Times,serif" font-size="14.00" fill="#000000">HeroesComponent</text>
</g>
<!-- HeroesComponent&#45;&gt;AppModule -->
<g id="edge5" class="edge">
<title>HeroesComponent&#45;&gt;AppModule</title>
<path fill="none" stroke="#000000" d="M390,-122.027C390,-138.3976 390,-160 390,-160 390,-160 490.063,-160 490.063,-160"/>
<polygon fill="#000000" stroke="#000000" points="490.063,-163.5001 500.063,-160 490.0629,-156.5001 490.063,-163.5001"/>
</g>
<!-- MessagesComponent -->
<g id="node6" class="node">
<title>MessagesComponent</title>
<polygon fill="#ffffb3" stroke="#000000" points="311.7548,-122 176.2452,-122 176.2452,-86 311.7548,-86 311.7548,-122"/>
<text text-anchor="middle" x="244" y="-99.8" font-family="Times,serif" font-size="14.00" fill="#000000">MessagesComponent</text>
</g>
<!-- MessagesComponent&#45;&gt;AppModule -->
<g id="edge6" class="edge">
<title>MessagesComponent&#45;&gt;AppModule</title>
<path fill="none" stroke="#000000" d="M244,-122.1061C244,-141.3391 244,-169 244,-169 244,-169 490.2506,-169 490.2506,-169"/>
<polygon fill="#000000" stroke="#000000" points="490.2506,-172.5001 500.2506,-169 490.2506,-165.5001 490.2506,-172.5001"/>
</g>
<!-- AppComponent  -->
<g id="node9" class="node">
<title>AppComponent </title>
<polygon fill="#80b1d3" stroke="#000000" points="596.439,-252 487.561,-252 487.561,-216 596.439,-216 596.439,-252"/>
<text text-anchor="middle" x="542" y="-229.8" font-family="Times,serif" font-size="14.00" fill="#000000">AppComponent </text>
</g>
<!-- AppModule&#45;&gt;AppComponent  -->
<g id="edge8" class="edge">
<title>AppModule&#45;&gt;AppComponent </title>
<path fill="none" stroke="#000000" stroke-dasharray="1,5" d="M542,-187.1061C542,-187.1061 542,-205.991 542,-205.991"/>
<polygon fill="#000000" stroke="#000000" points="538.5001,-205.9909 542,-215.991 545.5001,-205.991 538.5001,-205.9909"/>
</g>
<!-- AppRoutingModule -->
<g id="node8" class="node">
<title>AppRoutingModule</title>
<polygon fill="#8dd3c7" stroke="#000000" points="152.2744,-122 149.2744,-126 128.2744,-126 125.2744,-122 23.7256,-122 23.7256,-86 152.2744,-86 152.2744,-122"/>
<text text-anchor="middle" x="88" y="-99.8" font-family="Times,serif" font-size="14.00" fill="#000000">AppRoutingModule</text>
</g>
<!-- AppRoutingModule&#45;&gt;AppModule -->
<g id="edge7" class="edge">
<title>AppRoutingModule&#45;&gt;AppModule</title>
<path fill="none" stroke="#000000" d="M88,-122.2921C88,-144.2057 88,-178 88,-178 88,-178 490.1025,-178 490.1025,-178"/>
<polygon fill="#000000" stroke="#000000" points="490.1026,-181.5001 500.1025,-178 490.1025,-174.5001 490.1026,-181.5001"/>
</g>
</g>
</svg>
